<mxfile host="app.diagrams.net" agent="Mozilla/5.0 (Windows NT 10.0; Win64; x64) AppleWebKit/537.36 (KHTML, like Gecko) Chrome/129.0.0.0 Safari/537.36" version="24.7.16">
  <diagram id="C5RBs43oDa-KdzZeNtuy" name="Page-1">
    <mxGraphModel dx="1037" dy="565" grid="1" gridSize="10" guides="1" tooltips="1" connect="1" arrows="1" fold="1" page="1" pageScale="1" pageWidth="827" pageHeight="1169" math="0" shadow="0">
      <root>
        <mxCell id="WIyWlLk6GJQsqaUBKTNV-0" />
        <mxCell id="WIyWlLk6GJQsqaUBKTNV-1" parent="WIyWlLk6GJQsqaUBKTNV-0" />
        <mxCell id="3lumVSMZ-ujpwdsF0KcU-28" style="edgeStyle=orthogonalEdgeStyle;rounded=0;orthogonalLoop=1;jettySize=auto;html=1;exitX=1;exitY=0.5;exitDx=0;exitDy=0;exitPerimeter=0;" edge="1" parent="WIyWlLk6GJQsqaUBKTNV-1" source="3lumVSMZ-ujpwdsF0KcU-0">
          <mxGeometry relative="1" as="geometry">
            <mxPoint x="200" y="200" as="targetPoint" />
          </mxGeometry>
        </mxCell>
        <mxCell id="3lumVSMZ-ujpwdsF0KcU-0" value="Start" style="strokeWidth=2;html=1;shape=mxgraph.flowchart.start_2;whiteSpace=wrap;" vertex="1" parent="WIyWlLk6GJQsqaUBKTNV-1">
          <mxGeometry x="110" y="175" width="50" height="50" as="geometry" />
        </mxCell>
        <mxCell id="3lumVSMZ-ujpwdsF0KcU-33" value="" style="edgeStyle=orthogonalEdgeStyle;rounded=0;orthogonalLoop=1;jettySize=auto;html=1;" edge="1" parent="WIyWlLk6GJQsqaUBKTNV-1" source="3lumVSMZ-ujpwdsF0KcU-5" target="3lumVSMZ-ujpwdsF0KcU-35">
          <mxGeometry relative="1" as="geometry">
            <mxPoint x="640" y="200" as="targetPoint" />
          </mxGeometry>
        </mxCell>
        <mxCell id="3lumVSMZ-ujpwdsF0KcU-5" value="Submit New Initiative form" style="rounded=1;whiteSpace=wrap;html=1;absoluteArcSize=1;arcSize=14;strokeWidth=2;spacingTop=0;spacingLeft=9;" vertex="1" parent="WIyWlLk6GJQsqaUBKTNV-1">
          <mxGeometry x="320" y="160" width="220" height="80" as="geometry" />
        </mxCell>
        <mxCell id="3lumVSMZ-ujpwdsF0KcU-36" style="edgeStyle=orthogonalEdgeStyle;rounded=0;orthogonalLoop=1;jettySize=auto;html=1;" edge="1" parent="WIyWlLk6GJQsqaUBKTNV-1" source="3lumVSMZ-ujpwdsF0KcU-12">
          <mxGeometry relative="1" as="geometry">
            <mxPoint x="600" y="200" as="targetPoint" />
          </mxGeometry>
        </mxCell>
        <mxCell id="3lumVSMZ-ujpwdsF0KcU-12" value="Re-Submit the Initiative form" style="rounded=1;whiteSpace=wrap;html=1;absoluteArcSize=1;arcSize=14;strokeWidth=2;align=center;spacingLeft=28;" vertex="1" parent="WIyWlLk6GJQsqaUBKTNV-1">
          <mxGeometry x="320" y="270" width="220" height="80" as="geometry" />
        </mxCell>
        <mxCell id="3lumVSMZ-ujpwdsF0KcU-16" value="" style="endArrow=none;dashed=1;html=1;rounded=0;fillColor=#f8cecc;strokeColor=#000000;" edge="1" parent="WIyWlLk6GJQsqaUBKTNV-1">
          <mxGeometry width="50" height="50" relative="1" as="geometry">
            <mxPoint x="300" y="360" as="sourcePoint" />
            <mxPoint x="300" y="40" as="targetPoint" />
          </mxGeometry>
        </mxCell>
        <mxCell id="3lumVSMZ-ujpwdsF0KcU-17" value="" style="endArrow=none;dashed=1;html=1;rounded=0;fillColor=#f8cecc;strokeColor=#000000;" edge="1" parent="WIyWlLk6GJQsqaUBKTNV-1">
          <mxGeometry width="50" height="50" relative="1" as="geometry">
            <mxPoint x="560" y="360" as="sourcePoint" />
            <mxPoint x="560" y="40" as="targetPoint" />
            <Array as="points">
              <mxPoint x="560" y="200" />
            </Array>
          </mxGeometry>
        </mxCell>
        <mxCell id="3lumVSMZ-ujpwdsF0KcU-18" value="" style="endArrow=none;dashed=1;html=1;rounded=0;fillColor=#f8cecc;strokeColor=#000000;" edge="1" parent="WIyWlLk6GJQsqaUBKTNV-1">
          <mxGeometry width="50" height="50" relative="1" as="geometry">
            <mxPoint x="300" y="360" as="sourcePoint" />
            <mxPoint x="560" y="360" as="targetPoint" />
          </mxGeometry>
        </mxCell>
        <mxCell id="3lumVSMZ-ujpwdsF0KcU-19" value="" style="endArrow=none;dashed=1;html=1;rounded=0;fillColor=#f8cecc;strokeColor=#000000;" edge="1" parent="WIyWlLk6GJQsqaUBKTNV-1">
          <mxGeometry width="50" height="50" relative="1" as="geometry">
            <mxPoint x="300" y="40" as="sourcePoint" />
            <mxPoint x="560" y="40" as="targetPoint" />
          </mxGeometry>
        </mxCell>
        <mxCell id="3lumVSMZ-ujpwdsF0KcU-31" style="edgeStyle=orthogonalEdgeStyle;rounded=0;orthogonalLoop=1;jettySize=auto;html=1;exitX=1;exitY=0.5;exitDx=0;exitDy=0;entryX=0;entryY=0.5;entryDx=0;entryDy=0;" edge="1" parent="WIyWlLk6GJQsqaUBKTNV-1" source="3lumVSMZ-ujpwdsF0KcU-20" target="3lumVSMZ-ujpwdsF0KcU-25">
          <mxGeometry relative="1" as="geometry" />
        </mxCell>
        <mxCell id="3lumVSMZ-ujpwdsF0KcU-20" value="View/ Edit Submissions,&amp;nbsp;&lt;div&gt;Status, Points&lt;/div&gt;" style="rounded=1;whiteSpace=wrap;html=1;absoluteArcSize=1;arcSize=14;strokeWidth=2;spacingLeft=12;" vertex="1" parent="WIyWlLk6GJQsqaUBKTNV-1">
          <mxGeometry x="320" y="50" width="220" height="80" as="geometry" />
        </mxCell>
        <mxCell id="3lumVSMZ-ujpwdsF0KcU-25" value="Redeem Approved Points" style="rounded=1;whiteSpace=wrap;html=1;absoluteArcSize=1;arcSize=14;strokeWidth=2;spacingTop=16;" vertex="1" parent="WIyWlLk6GJQsqaUBKTNV-1">
          <mxGeometry x="590" y="50" width="130" height="80" as="geometry" />
        </mxCell>
        <mxCell id="3lumVSMZ-ujpwdsF0KcU-30" value="" style="endArrow=classic;html=1;rounded=0;entryX=0;entryY=0.5;entryDx=0;entryDy=0;" edge="1" parent="WIyWlLk6GJQsqaUBKTNV-1" target="3lumVSMZ-ujpwdsF0KcU-5">
          <mxGeometry width="50" height="50" relative="1" as="geometry">
            <mxPoint x="240" y="199.5" as="sourcePoint" />
            <mxPoint x="300" y="199.5" as="targetPoint" />
          </mxGeometry>
        </mxCell>
        <mxCell id="3lumVSMZ-ujpwdsF0KcU-38" style="edgeStyle=orthogonalEdgeStyle;rounded=0;orthogonalLoop=1;jettySize=auto;html=1;entryX=0;entryY=0.5;entryDx=0;entryDy=0;" edge="1" parent="WIyWlLk6GJQsqaUBKTNV-1" source="3lumVSMZ-ujpwdsF0KcU-34" target="3lumVSMZ-ujpwdsF0KcU-12">
          <mxGeometry relative="1" as="geometry" />
        </mxCell>
        <mxCell id="3lumVSMZ-ujpwdsF0KcU-39" style="edgeStyle=orthogonalEdgeStyle;rounded=0;orthogonalLoop=1;jettySize=auto;html=1;entryX=0;entryY=0.5;entryDx=0;entryDy=0;" edge="1" parent="WIyWlLk6GJQsqaUBKTNV-1" source="3lumVSMZ-ujpwdsF0KcU-34" target="3lumVSMZ-ujpwdsF0KcU-20">
          <mxGeometry relative="1" as="geometry" />
        </mxCell>
        <mxCell id="3lumVSMZ-ujpwdsF0KcU-34" value="Officer" style="sketch=0;pointerEvents=1;shadow=0;dashed=0;html=1;strokeColor=none;fillColor=#505050;labelPosition=center;verticalLabelPosition=top;verticalAlign=bottom;outlineConnect=0;align=center;shape=mxgraph.office.users.user;movable=1;resizable=1;rotatable=1;deletable=1;editable=1;locked=0;connectable=1;" vertex="1" parent="WIyWlLk6GJQsqaUBKTNV-1">
          <mxGeometry x="197" y="175" width="46" height="50" as="geometry" />
        </mxCell>
        <mxCell id="3lumVSMZ-ujpwdsF0KcU-56" value="Approved" style="edgeStyle=orthogonalEdgeStyle;rounded=0;orthogonalLoop=1;jettySize=auto;html=1;strokeColor=#006e00;dashed=1;strokeWidth=2;verticalAlign=top;labelPosition=right;verticalLabelPosition=bottom;align=left;" edge="1" parent="WIyWlLk6GJQsqaUBKTNV-1" source="3lumVSMZ-ujpwdsF0KcU-35" target="3lumVSMZ-ujpwdsF0KcU-25">
          <mxGeometry relative="1" as="geometry">
            <Array as="points">
              <mxPoint x="798" y="90" />
            </Array>
          </mxGeometry>
        </mxCell>
        <mxCell id="3lumVSMZ-ujpwdsF0KcU-35" value="Admin&lt;div&gt;&lt;br&gt;&lt;/div&gt;" style="sketch=0;pointerEvents=1;shadow=0;dashed=0;html=1;strokeColor=none;fillColor=#505050;labelPosition=right;verticalLabelPosition=middle;verticalAlign=middle;outlineConnect=0;align=left;shape=mxgraph.office.users.approver;" vertex="1" parent="WIyWlLk6GJQsqaUBKTNV-1">
          <mxGeometry x="768" y="173" width="59" height="55" as="geometry" />
        </mxCell>
        <mxCell id="3lumVSMZ-ujpwdsF0KcU-40" value="Email" style="sketch=0;outlineConnect=0;fontColor=#232F3E;gradientColor=none;fillColor=#505050;strokeColor=none;dashed=0;verticalLabelPosition=bottom;verticalAlign=top;align=center;html=1;fontSize=12;fontStyle=0;aspect=fixed;pointerEvents=1;shape=mxgraph.aws4.email_2;labelPosition=center;textDirection=ltr;" vertex="1" parent="WIyWlLk6GJQsqaUBKTNV-1">
          <mxGeometry x="700" y="176" width="31.84" height="20" as="geometry" />
        </mxCell>
        <mxCell id="3lumVSMZ-ujpwdsF0KcU-44" value="" style="endArrow=none;html=1;rounded=0;dashed=1;strokeColor=#ff0000;strokeWidth=2;" edge="1" parent="WIyWlLk6GJQsqaUBKTNV-1">
          <mxGeometry width="50" height="50" relative="1" as="geometry">
            <mxPoint x="223" y="400" as="sourcePoint" />
            <mxPoint x="800" y="400" as="targetPoint" />
          </mxGeometry>
        </mxCell>
        <mxCell id="3lumVSMZ-ujpwdsF0KcU-47" value="" style="endArrow=classic;html=1;rounded=0;strokeColor=#ff0000;dashed=1;strokeWidth=2;" edge="1" parent="WIyWlLk6GJQsqaUBKTNV-1" target="3lumVSMZ-ujpwdsF0KcU-34">
          <mxGeometry width="50" height="50" relative="1" as="geometry">
            <mxPoint x="220" y="400" as="sourcePoint" />
            <mxPoint x="270" y="90" as="targetPoint" />
          </mxGeometry>
        </mxCell>
        <mxCell id="3lumVSMZ-ujpwdsF0KcU-50" value="Rejected" style="endArrow=none;html=1;rounded=0;strokeColor=#ff0000;dashed=1;targetPerimeterSpacing=1;strokeWidth=2;labelPosition=right;verticalLabelPosition=top;align=left;verticalAlign=bottom;" edge="1" parent="WIyWlLk6GJQsqaUBKTNV-1" source="3lumVSMZ-ujpwdsF0KcU-35">
          <mxGeometry width="50" height="50" relative="1" as="geometry">
            <mxPoint x="670" y="260" as="sourcePoint" />
            <mxPoint x="800" y="400" as="targetPoint" />
            <Array as="points">
              <mxPoint x="800" y="400" />
            </Array>
          </mxGeometry>
        </mxCell>
        <mxCell id="3lumVSMZ-ujpwdsF0KcU-57" value="Email" style="sketch=0;outlineConnect=0;fontColor=#232F3E;gradientColor=none;fillColor=#505050;strokeColor=none;dashed=0;verticalLabelPosition=bottom;verticalAlign=top;align=center;html=1;fontSize=12;fontStyle=0;aspect=fixed;pointerEvents=1;shape=mxgraph.aws4.email_2;labelPosition=center;textDirection=ltr;" vertex="1" parent="WIyWlLk6GJQsqaUBKTNV-1">
          <mxGeometry x="750" y="377" width="31.84" height="20" as="geometry" />
        </mxCell>
        <mxCell id="3lumVSMZ-ujpwdsF0KcU-63" value="Email" style="sketch=0;outlineConnect=0;fontColor=#232F3E;gradientColor=none;fillColor=#505050;strokeColor=none;dashed=0;verticalLabelPosition=bottom;verticalAlign=top;align=center;html=1;fontSize=12;fontStyle=0;aspect=fixed;pointerEvents=1;shape=mxgraph.aws4.email_2;labelPosition=center;textDirection=ltr;" vertex="1" parent="WIyWlLk6GJQsqaUBKTNV-1">
          <mxGeometry x="770" y="64" width="31.84" height="20" as="geometry" />
        </mxCell>
        <mxCell id="3lumVSMZ-ujpwdsF0KcU-73" value="" style="edgeStyle=orthogonalEdgeStyle;rounded=0;orthogonalLoop=1;jettySize=auto;html=1;" edge="1" parent="WIyWlLk6GJQsqaUBKTNV-1" source="3lumVSMZ-ujpwdsF0KcU-64" target="3lumVSMZ-ujpwdsF0KcU-65">
          <mxGeometry relative="1" as="geometry" />
        </mxCell>
        <mxCell id="3lumVSMZ-ujpwdsF0KcU-64" value="Start" style="strokeWidth=2;html=1;shape=mxgraph.flowchart.start_2;whiteSpace=wrap;" vertex="1" parent="WIyWlLk6GJQsqaUBKTNV-1">
          <mxGeometry x="110" y="580" width="50" height="50" as="geometry" />
        </mxCell>
        <mxCell id="3lumVSMZ-ujpwdsF0KcU-65" value="Admin" style="sketch=0;pointerEvents=1;shadow=0;dashed=0;html=1;strokeColor=none;fillColor=#505050;labelPosition=center;verticalLabelPosition=top;verticalAlign=bottom;outlineConnect=0;align=center;shape=mxgraph.office.users.tenant_admin;" vertex="1" parent="WIyWlLk6GJQsqaUBKTNV-1">
          <mxGeometry x="220" y="576" width="56" height="58" as="geometry" />
        </mxCell>
        <mxCell id="3lumVSMZ-ujpwdsF0KcU-66" value="" style="shape=image;html=1;verticalAlign=top;verticalLabelPosition=bottom;labelBackgroundColor=#ffffff;imageAspect=0;aspect=fixed;image=https://cdn2.iconfinder.com/data/icons/essential-web-4/50/content-form-application-article-paper-128.png" vertex="1" parent="WIyWlLk6GJQsqaUBKTNV-1">
          <mxGeometry x="330" y="185" width="30" height="30" as="geometry" />
        </mxCell>
        <mxCell id="3lumVSMZ-ujpwdsF0KcU-67" value="" style="shape=image;html=1;verticalAlign=top;verticalLabelPosition=bottom;labelBackgroundColor=#ffffff;imageAspect=0;aspect=fixed;image=https://cdn0.iconfinder.com/data/icons/analytic-investment-and-balanced-scorecard/512/11_Agreement_report_form_layout_paper-128.png" vertex="1" parent="WIyWlLk6GJQsqaUBKTNV-1">
          <mxGeometry x="330" y="292.5" width="35" height="35" as="geometry" />
        </mxCell>
        <mxCell id="3lumVSMZ-ujpwdsF0KcU-68" value="" style="html=1;dashed=0;aspect=fixed;verticalLabelPosition=bottom;verticalAlign=top;align=center;shape=mxgraph.gmdl.star;strokeColor=none;fillColor=#e5b80b;shadow=0;sketch=0;fontColor=#e5b80b;" vertex="1" parent="WIyWlLk6GJQsqaUBKTNV-1">
          <mxGeometry x="600" y="60" width="20" height="20" as="geometry" />
        </mxCell>
        <mxCell id="3lumVSMZ-ujpwdsF0KcU-69" value="" style="html=1;dashed=0;aspect=fixed;verticalLabelPosition=bottom;verticalAlign=top;align=center;shape=mxgraph.gmdl.star;strokeColor=none;fillColor=#e5b80b;shadow=0;sketch=0;fontColor=#e5b80b;" vertex="1" parent="WIyWlLk6GJQsqaUBKTNV-1">
          <mxGeometry x="630" y="60" width="20" height="20" as="geometry" />
        </mxCell>
        <mxCell id="3lumVSMZ-ujpwdsF0KcU-70" value="" style="html=1;dashed=0;aspect=fixed;verticalLabelPosition=bottom;verticalAlign=top;align=center;shape=mxgraph.gmdl.star;strokeColor=none;fillColor=#e5b80b;shadow=0;sketch=0;fontColor=#e5b80b;" vertex="1" parent="WIyWlLk6GJQsqaUBKTNV-1">
          <mxGeometry x="660" y="60" width="20" height="20" as="geometry" />
        </mxCell>
        <mxCell id="3lumVSMZ-ujpwdsF0KcU-71" value="" style="html=1;dashed=0;aspect=fixed;verticalLabelPosition=bottom;verticalAlign=top;align=center;shape=mxgraph.gmdl.star;strokeColor=none;fillColor=#e5b80b;shadow=0;sketch=0;fontColor=#e5b80b;" vertex="1" parent="WIyWlLk6GJQsqaUBKTNV-1">
          <mxGeometry x="690" y="60" width="20" height="20" as="geometry" />
        </mxCell>
        <mxCell id="3lumVSMZ-ujpwdsF0KcU-72" value="" style="sketch=0;pointerEvents=1;shadow=0;dashed=0;html=1;strokeColor=none;fillColor=#434445;aspect=fixed;labelPosition=center;verticalLabelPosition=bottom;verticalAlign=top;align=center;outlineConnect=0;shape=mxgraph.vvd.nsx_dashboard;" vertex="1" parent="WIyWlLk6GJQsqaUBKTNV-1">
          <mxGeometry x="30" y="369.1" width="30" height="27.9" as="geometry" />
        </mxCell>
        <mxCell id="3lumVSMZ-ujpwdsF0KcU-74" value="" style="sketch=0;pointerEvents=1;shadow=0;dashed=0;html=1;strokeColor=none;labelPosition=center;verticalLabelPosition=bottom;verticalAlign=top;align=center;fillColor=#505050;shape=mxgraph.mscae.oms.dashboard" vertex="1" parent="WIyWlLk6GJQsqaUBKTNV-1">
          <mxGeometry x="332.5" y="75" width="30" height="30" as="geometry" />
        </mxCell>
      </root>
    </mxGraphModel>
  </diagram>
</mxfile>
